<svg aria-hidden="true" style="position: absolute; width: 0; height: 0; overflow: hidden;" version="1.1" xmlns="http://www.w3.org/2000/svg" xmlns:xlink="http://www.w3.org/1999/xlink">
<defs>
<symbol id="icon-instagram" viewBox="0 0 32 32">
<path d="M16 2.881c4.275 0 4.781 0.019 6.462 0.094 1.563 0.069 2.406 0.331 2.969 0.55 0.744 0.288 1.281 0.638 1.837 1.194 0.563 0.563 0.906 1.094 1.2 1.838 0.219 0.563 0.481 1.412 0.55 2.969 0.075 1.688 0.094 2.194 0.094 6.463s-0.019 4.781-0.094 6.463c-0.069 1.563-0.331 2.406-0.55 2.969-0.288 0.744-0.637 1.281-1.194 1.837-0.563 0.563-1.094 0.906-1.837 1.2-0.563 0.219-1.413 0.481-2.969 0.55-1.688 0.075-2.194 0.094-6.463 0.094s-4.781-0.019-6.463-0.094c-1.563-0.069-2.406-0.331-2.969-0.55-0.744-0.288-1.281-0.637-1.838-1.194-0.563-0.563-0.906-1.094-1.2-1.837-0.219-0.563-0.481-1.413-0.55-2.969-0.075-1.688-0.094-2.194-0.094-6.463s0.019-4.781 0.094-6.463c0.069-1.563 0.331-2.406 0.55-2.969 0.288-0.744 0.638-1.281 1.194-1.838 0.563-0.563 1.094-0.906 1.838-1.2 0.563-0.219 1.412-0.481 2.969-0.55 1.681-0.075 2.188-0.094 6.463-0.094zM16 0c-4.344 0-4.887 0.019-6.594 0.094-1.7 0.075-2.869 0.35-3.881 0.744-1.056 0.412-1.95 0.956-2.837 1.85-0.894 0.888-1.438 1.781-1.85 2.831-0.394 1.019-0.669 2.181-0.744 3.881-0.075 1.713-0.094 2.256-0.094 6.6s0.019 4.887 0.094 6.594c0.075 1.7 0.35 2.869 0.744 3.881 0.413 1.056 0.956 1.95 1.85 2.837 0.887 0.887 1.781 1.438 2.831 1.844 1.019 0.394 2.181 0.669 3.881 0.744 1.706 0.075 2.25 0.094 6.594 0.094s4.888-0.019 6.594-0.094c1.7-0.075 2.869-0.35 3.881-0.744 1.050-0.406 1.944-0.956 2.831-1.844s1.438-1.781 1.844-2.831c0.394-1.019 0.669-2.181 0.744-3.881 0.075-1.706 0.094-2.25 0.094-6.594s-0.019-4.887-0.094-6.594c-0.075-1.7-0.35-2.869-0.744-3.881-0.394-1.063-0.938-1.956-1.831-2.844-0.887-0.887-1.781-1.438-2.831-1.844-1.019-0.394-2.181-0.669-3.881-0.744-1.712-0.081-2.256-0.1-6.6-0.1v0z"></path>
<path d="M16 7.781c-4.537 0-8.219 3.681-8.219 8.219s3.681 8.219 8.219 8.219 8.219-3.681 8.219-8.219c0-4.537-3.681-8.219-8.219-8.219zM16 21.331c-2.944 0-5.331-2.387-5.331-5.331s2.387-5.331 5.331-5.331c2.944 0 5.331 2.387 5.331 5.331s-2.387 5.331-5.331 5.331z"></path>
<path d="M26.462 7.456c0 1.060-0.859 1.919-1.919 1.919s-1.919-0.859-1.919-1.919c0-1.060 0.859-1.919 1.919-1.919s1.919 0.859 1.919 1.919z"></path>
</symbol>
<symbol id="icon-facebook" viewBox="0 0 163 32">
<path d="M160.711 27.606c1.11 0 1.993 0.887 1.993 1.999 0 1.125-0.883 1.999-2.003 1.999-1.108 0-2.008-0.875-2.008-1.999 0-1.112 0.9-1.999 2.008-1.999h0.010zM32.394 31.337h-5.491l-0.234-1.362c-2.509 1.362-4.746 1.584-6.221 1.584-4.029 0-6.172-2.639-6.172-6.292 0-4.308 2.501-5.848 6.976-5.848h4.551v-0.93c0-2.199-0.254-2.844-3.712-2.844h-5.616l0.552-5.398h6.16c7.556 0 9.213 2.349 9.213 8.287v12.802h-0.005zM114.204 22.873c0 4.398-1.848 8.664-9.584 8.664-7.744 0-9.627-4.266-9.627-8.664v-4.248c0-4.398 1.881-8.664 9.625-8.664 7.754 0 9.61 4.266 9.61 8.666v4.248l-0.023-0.003zM135.299 22.873c0 4.398-1.851 8.664-9.584 8.664-7.746 0-9.63-4.266-9.63-8.664v-4.248c0-4.398 1.881-8.664 9.627-8.664 7.729 0 9.584 4.266 9.584 8.666v4.248l0.003-0.003zM160.701 27.921c-0.889 0-1.627 0.75-1.627 1.682 0 0.95 0.738 1.694 1.637 1.694 0.903 0.025 1.627-0.725 1.627-1.674 0-0.925-0.724-1.679-1.627-1.679h-0.010v-0.022zM9.879 31.295h-6.584v-15.643h-3.295v-5.398h3.292v-3.236c0-4.398 1.856-7.017 7.139-7.017h4.398v5.398h-2.746c-2.059 0-2.197 0.75-2.197 2.159l-0.025 2.699h4.983l-0.585 5.398h-4.396v15.644l0.015-0.003zM160.323 30.77h-0.361v-2.232c0.204-0.025 0.381-0.050 0.662-0.050 0.347 0 0.574 0.067 0.712 0.165 0.137 0.1 0.202 0.25 0.202 0.462 0 0.292-0.192 0.47-0.431 0.542v0.017c0.193 0.035 0.329 0.21 0.381 0.54 0.050 0.345 0.102 0.48 0.137 0.55h-0.381c-0.050-0.070-0.109-0.275-0.152-0.565-0.051-0.287-0.204-0.392-0.489-0.392h-0.254v0.96l-0.025 0.003zM160.323 29.533h0.261c0.297 0 0.55-0.108 0.55-0.382 0-0.195-0.142-0.39-0.55-0.39-0.117 0-0.202 0.007-0.261 0.017v0.755zM20.862 25.185c0 1.179 0.569 1.792 1.82 1.792 1.347 0 2.141-0.43 3.122-0.875v-2.361h-2.939c-1.393 0-2.003 0.25-2.003 1.442v0.003zM83.762 15.349c-1.348 0-2.313 0.425-3.295 0.875v9.946c0.941 0.087 1.48 0.087 2.374 0.087 3.229 0 3.666-1.449 3.666-3.474v-4.758c0-1.489-0.508-2.691-2.746-2.691v0.015zM104.596 15.349c-2.242 0-3.017 1.2-3.017 2.674v5.448c0 1.5 0.775 2.699 3.017 2.699 2.237 0 3.015-1.2 3.015-2.699v-5.448c0-1.489-0.788-2.691-3.025-2.691l0.010 0.018zM51.064 16.023c-3.417-0.575-4.398-0.7-6.040-0.7-2.954 0-3.846 0.632-3.846 3.099v4.648c0 2.461 0.89 3.099 3.846 3.099 1.645 0 2.624-0.125 6.040-0.7v5.258c-2.992 0.662-4.942 0.835-6.59 0.835-7.073 0-9.884-3.649-9.884-8.921v-3.773c0-5.283 2.812-8.939 9.884-8.939 1.648 0 3.597 0.175 6.59 0.837v5.258zM71.682 22.646h-12.081v0.425c0 2.461 0.89 3.099 3.844 3.099 2.656 0 4.271-0.125 7.683-0.7v5.258c-3.287 0.662-5.001 0.835-8.229 0.835-7.068 0-9.864-3.649-9.864-8.921v-4.323c0-4.616 2.085-8.396 9.33-8.396 7.258 0 9.33 3.736 9.33 8.396v4.323l-0.013 0.005zM125.689 15.349c-2.237 0-3.013 1.2-3.013 2.681v5.455c0 1.499 0.776 2.699 3.013 2.699s3.026-1.2 3.026-2.699v-5.458c0-1.492-0.788-2.694-3.026-2.694v0.015zM156.951 31.292h-7.136l-6.041-9.896v9.896h-6.584v-29.68l6.584-1.075v19.105l6.038-9.396h7.119l-6.597 10.246 6.592 10.796 0.025 0.005zM62.346 14.799c-2.237 0-2.746 1.199-2.746 2.699v0.832h5.491v-0.84c0-1.474-0.508-2.684-2.746-2.684v-0.007zM93.097 22.746c0 5.098-1.5 8.821-10.499 8.821-3.244 0-5.151-0.285-8.736-0.825v-29.135l6.585-1.075v10.188c1.423-0.52 3.267-0.782 4.945-0.782 6.584 0 7.677 2.899 7.677 7.554v5.273l0.028-0.020z"></path>
</symbol>
<symbol id="icon-checkmark" viewBox="0 0 32 32">
<path d="M27 4l-15 15-7-7-5 5 12 12 20-20z"></path>
</symbol>
</defs>
</svg>